<svg width="46" height="45" viewBox="0 0 46 45" fill="none" xmlns="http://www.w3.org/2000/svg">
<path d="M42.4416 13.6297C42.1438 14.2206 41.7851 14.8084 41.2503 15.2805C39.1654 17.4018 38.0364 20.4041 40.6546 22.6426C41.428 23.2921 40.4768 24.4106 39.7003 23.7627C36.3663 20.9949 37.3784 16.9883 40.179 14.2206C41.7259 12.6886 41.8444 10.2726 40.9524 8.38738C40.179 6.79678 38.6898 5.61964 36.8435 5.3836C36.962 5.85414 37.0213 6.32469 36.962 6.8554C36.962 7.85821 35.4744 7.79958 35.4744 6.8554C35.5336 3.61712 32.9123 0.965091 29.7577 0.668878C27.7321 0.551627 26.3037 1.49426 26.3037 3.6742V10.2125C26.3037 13.0388 28.4478 15.0429 31.2469 14.2777C32.3182 14.0401 33.5096 13.3335 34.6401 12.215C34.9379 11.9203 35.4151 11.9203 35.7129 12.215C36.0108 12.5097 36.0108 12.9802 35.7129 13.2749C33.2117 15.7495 29.1043 17.3401 26.3037 14.3363V20.816C26.3037 23.937 27.1988 27.1167 29.937 29.0019C31.6056 30.1822 34.046 30.77 36.07 30.1822C37.0821 29.9461 37.4376 31.4179 36.4864 31.654C32.496 32.7154 28.2685 30.6542 26.3037 27.2355V39.9016C26.3037 43.9669 32.1997 43.2603 33.9259 40.3722C31.7818 39.9603 30.0556 38.6072 29.4599 36.4273C29.162 35.4831 30.6497 35.0712 30.8898 36.0138C31.4247 37.8991 33.4503 39.2552 35.3527 38.9605C37.737 38.5486 39.4617 36.4273 40.3552 34.3075C40.8901 33.0101 41.4857 30.7129 40.8308 29.3583C35.7706 29.4169 31.2454 24.5279 31.8395 19.5802C31.958 18.5789 33.4487 18.7564 33.3287 19.7561C32.8499 24.0573 37.1975 28.4157 41.4842 27.8279C44.7604 27.416 45.5931 24.116 45.5931 21.2896C45.5931 18.4632 44.4626 15.6924 42.4385 13.6297H42.4416Z" fill="#005A54"/>
<path d="M21.826 21.6621C21.3075 21.3448 20.337 20.8882 18.9143 20.2939C17.2422 19.5896 16.2343 19.116 15.8925 18.8714C15.5408 18.6284 15.3658 18.2028 15.3658 17.5945C15.3658 17.2292 15.4517 16.9553 15.6235 16.7726C15.7952 16.59 16.0512 16.4987 16.3931 16.4987C16.8176 16.4987 17.0947 16.6039 17.226 16.816C17.3556 17.028 17.4204 17.4753 17.4204 18.161V18.8049H23.0202C23.0575 18.4783 23.0769 18.2353 23.0769 18.0743C23.0769 16.9274 22.6475 16.0297 21.7871 15.3796C20.9284 14.7295 19.6337 14.3271 17.9049 14.1739V12.9341H15.327V14.1739C13.4328 14.3271 12.0118 14.7342 11.0655 15.3935C10.1177 16.0529 9.64453 16.963 9.64453 18.1223C9.64453 18.9225 9.86813 19.6407 10.317 20.2737C10.7658 20.9083 11.2972 21.399 11.9113 21.7488C12.5271 22.097 13.6872 22.6434 15.3983 23.3864C16.4239 23.8275 17.025 24.2361 17.2 24.6107C17.375 24.9852 17.4642 25.609 17.4642 26.4789C17.4642 26.824 17.3718 27.0856 17.1871 27.2621C17.0024 27.4385 16.7204 27.5267 16.3413 27.5267C15.8973 27.5267 15.617 27.3998 15.502 27.146C15.3853 26.8937 15.3286 26.2451 15.3286 25.2004V24.2485H9.72879V25.0069C9.72879 26.7358 10.2862 27.9477 11.4058 28.6427C12.5238 29.3376 13.8314 29.737 15.3286 29.8391V31.3467H17.9065V29.8856C19.8298 29.7014 21.2703 29.2123 22.2311 28.426C23.192 27.6382 23.6732 26.5532 23.6732 25.1694C23.6732 24.3058 23.495 23.5829 23.1401 23.0025C22.7836 22.4236 22.3478 21.9748 21.8309 21.6575L21.826 21.6621Z" fill="#005A54"/>
<path d="M5.00192 22.6272C5.00192 13.2674 12.8895 5.64391 22.6175 5.56027V0.664313C22.5724 0.658117 22.5272 0.658116 22.4804 0.661214C21.111 0.772732 17.993 1.09645 15.63 1.85849C15.5703 1.86623 15.5106 1.87862 15.4509 1.89721C15.3832 1.91889 15.3171 1.94677 15.2574 1.98085C13.1992 2.67319 11.2749 3.64278 9.53446 4.8416C9.42316 4.87412 9.31509 4.92214 9.21669 4.99339C9.11669 5.06464 9.03281 5.15137 8.96668 5.24585C7.27625 6.48804 5.76971 7.95017 4.49866 9.58887C4.41317 9.64927 4.33414 9.72362 4.26962 9.81191C4.2051 9.89864 4.15671 9.99157 4.12445 10.0876C2.86792 11.8068 1.8614 13.7073 1.15652 15.7394C1.13233 15.7859 1.10975 15.8339 1.09362 15.8865C1.07749 15.9346 1.06619 15.9841 1.05813 16.0321C0.372604 18.1107 0 20.3225 0 22.6164C0 22.6164 0 22.6179 0 22.6195C0 22.6195 0 22.6195 0 22.621C0 22.6226 0 22.6257 0 22.6272C0 24.9304 0.374216 27.1514 1.06458 29.2378C1.07265 29.2749 1.08232 29.3137 1.09523 29.3508C1.10813 29.3911 1.12426 29.4283 1.14201 29.4654C1.8485 31.5223 2.86631 33.446 4.13896 35.1838C4.17122 35.2675 4.21477 35.348 4.26962 35.4239C4.32768 35.5014 4.39543 35.568 4.46963 35.6253C5.75358 37.2872 7.27625 38.7695 8.99088 40.024C9.05217 40.1061 9.12798 40.1805 9.21669 40.244C9.3038 40.3059 9.39735 40.3524 9.49574 40.3849C11.2926 41.6271 13.2847 42.6261 15.4187 43.3278C15.43 43.3324 15.4397 43.3371 15.4509 43.3402C15.4558 43.3402 15.4606 43.3433 15.4655 43.3433C17.7463 44.0867 20.1883 44.4941 22.7256 44.4987C22.7498 44.4987 22.7724 44.4941 22.7966 44.491V39.7019C22.7756 39.7019 22.7546 39.6957 22.732 39.6957C12.9508 39.6725 5.00192 32.0242 5.00192 22.6272ZM21.3368 1.64165C21.3223 1.7098 21.3142 1.78104 21.3142 1.85229V3.93242C19.9851 4.0269 18.6931 4.24993 17.4495 4.58914L16.7704 2.55393C16.7543 2.50591 16.7333 2.45945 16.7107 2.41608C18.1947 2.00563 19.7415 1.74232 21.3352 1.64165H21.3368ZM14.7461 3.05886C14.7541 3.10068 14.7638 3.14249 14.7783 3.18431L15.4655 5.24585C14.2476 5.7198 13.0895 6.30992 12.0072 6.99917L10.6797 5.21952C10.6603 5.19319 10.6377 5.16686 10.6168 5.14363C11.904 4.31499 13.2863 3.6149 14.7461 3.06041V3.05886ZM8.93281 6.3409C8.94894 6.36723 8.96668 6.39356 8.98442 6.41834L10.3168 8.20418C9.31025 9.00804 8.38923 9.90639 7.56659 10.8853L5.731 9.58577C5.70358 9.56563 5.67615 9.5486 5.64712 9.53156C6.62137 8.35907 7.72305 7.28725 8.93119 6.33935L8.93281 6.3409ZM4.4164 11.1718C4.44382 11.195 4.47124 11.2183 4.50189 11.2384L6.33103 12.5333C5.62454 13.5911 5.02773 14.7203 4.55028 15.9082L2.41305 15.2314C2.37111 15.2174 2.32756 15.2081 2.28401 15.2004C2.84534 13.777 3.56151 12.4279 4.41479 11.1718H4.4164ZM1.63558 17.121C1.67752 17.1411 1.71946 17.1582 1.76462 17.1721L3.8954 17.8474C3.56312 19.0555 3.35343 20.3101 3.28085 21.5988H1.04684C0.996835 21.5988 0.948445 21.6034 0.900055 21.6096C0.977479 20.0638 1.22911 18.5614 1.6372 17.121H1.63558ZM1.63075 28.1195C1.22427 26.6775 0.97264 25.1751 0.896829 23.6278C0.945219 23.634 0.993609 23.6386 1.04523 23.6386H3.28085C3.35343 24.9288 3.56151 26.1834 3.89217 27.3915L1.76462 28.0653C1.71785 28.0808 1.6743 28.0993 1.63075 28.1195ZM4.40834 34.0733C3.55506 32.8141 2.83727 31.4635 2.27756 30.0385C2.32272 30.0308 2.36789 30.0199 2.41144 30.006L4.54221 29.3307C5.01805 30.5187 5.61486 31.6509 6.32136 32.7088L4.49866 33.999C4.4664 34.0222 4.43576 34.047 4.40672 34.0733H4.40834ZM8.98442 38.819C8.96345 38.8485 8.9441 38.8779 8.92474 38.9073C7.71499 37.9563 6.6117 36.883 5.63744 35.7089C5.6697 35.6903 5.70035 35.6717 5.731 35.6501L7.55692 34.3568C8.37793 35.3372 9.30057 36.2371 10.3071 37.0425L8.98281 38.819H8.98442ZM14.7767 42.0531C14.7606 42.0995 14.7509 42.1475 14.7428 42.194C13.2798 41.638 11.8959 40.9363 10.6055 40.1046C10.6313 40.0767 10.6555 40.0488 10.6781 40.0179L11.9975 38.2491C13.0814 38.9398 14.2396 39.53 15.459 40.0055L14.7767 42.0515V42.0531ZM16.7026 42.8352C16.7284 42.7872 16.751 42.7361 16.7688 42.6835L17.443 40.6622C18.6866 41.0014 19.9819 41.226 21.3126 41.3205V43.3835C21.3126 43.4625 21.3223 43.5384 21.34 43.6112C19.7415 43.5121 18.1898 43.2472 16.7026 42.8337V42.8352Z" fill="#005A54"/>
</svg>
