<svg width="51" height="51" viewBox="0 0 51 51" fill="none" xmlns="http://www.w3.org/2000/svg">
<path d="M25.3713 51C11.3811 51 0 39.6082 0 25.6047C0 11.6013 11.3811 0.205017 25.3713 0.205017C39.3616 0.205017 50.7426 11.5968 50.7426 25.6003C50.7426 39.6037 39.3616 50.9955 25.3713 50.9955V51ZM25.3713 4.40247C13.6904 4.40247 4.18902 13.9128 4.18902 25.6047C4.18902 37.2967 13.6904 46.807 25.3713 46.807C37.0522 46.807 46.5536 37.2967 46.5536 25.6047C46.5536 13.9128 37.0522 4.40247 25.3713 4.40247Z" fill="#1074B0"/>
<path d="M5.9971 29.7305C5.9971 29.7305 15.5567 23.4455 23.2589 29.7305C23.2589 29.7305 20.4036 32.3018 16.2683 32.3018C16.2683 32.3018 33.6733 32.7319 28.8219 17.8818C28.8219 17.8818 38.3814 18.5941 39.3795 23.1633C40.3775 27.7326 36.2422 34.8732 30.2496 38.4435C30.2496 38.4435 40.9504 33.3008 41.0936 22.5944C41.2368 11.8835 36.2422 9.45553 36.2422 9.45553C36.2422 9.45553 46.0837 15.5972 45.0857 28.0193C44.0876 40.4414 31.6772 48.1509 20.408 45.5841C9.13887 43.0127 5.85836 33.0186 6.00158 29.735L5.9971 29.7305Z" fill="#02A5CE"/>
<path d="M37.003 31.8673C38.9498 28.8615 39.9165 25.6361 39.375 23.1633C38.377 18.5941 28.8174 17.8818 28.8174 17.8818C33.6688 32.7319 16.2638 32.3018 16.2638 32.3018C20.3991 32.3018 23.2544 29.7305 23.2544 29.7305C15.5522 23.4455 5.99263 29.7305 5.99263 29.7305C5.9792 30.0307 5.99263 30.389 6.04186 30.7877C7.41582 33.3322 11.7704 39.9352 19.2579 38.3897C28.4818 36.4859 27.7209 36.011 31.1446 33.7264C34.5549 31.4507 36.9806 31.8584 36.9985 31.8628L37.003 31.8673Z" fill="#51C5E0"/>
</svg>
