<?xml version="1.0" encoding="UTF-8" standalone="no"?>
<!DOCTYPE svg PUBLIC "-//W3C//DTD SVG 1.1//EN" "http://www.w3.org/Graphics/SVG/1.1/DTD/svg11.dtd">
<svg width="100%" height="100%" viewBox="0 0 269 52" version="1.1" xmlns="http://www.w3.org/2000/svg" xmlns:xlink="http://www.w3.org/1999/xlink" xml:space="preserve" xmlns:serif="http://www.serif.com/" style="fill-rule:evenodd;clip-rule:evenodd;stroke-linejoin:round;stroke-miterlimit:2;">
    <path d="M0.236,17.74C0.236,16.526 0.388,15.365 0.697,14.25C1.006,13.134 1.444,12.086 2.017,11.11C2.59,10.133 3.27,9.242 4.067,8.444C4.863,7.642 5.745,6.961 6.716,6.392C7.687,5.828 8.73,5.385 9.845,5.071C10.959,4.757 12.123,4.601 13.336,4.601C14.548,4.601 15.698,4.757 16.817,5.071C17.936,5.385 18.984,5.824 19.955,6.392C20.926,6.961 21.812,7.642 22.613,8.444C23.414,9.246 24.095,10.133 24.663,11.11C25.227,12.086 25.67,13.134 25.983,14.25C26.296,15.365 26.453,16.53 26.453,17.74C26.453,18.949 26.296,20.114 25.983,21.229C25.67,22.345 25.227,23.384 24.663,24.352C24.095,25.319 23.414,26.197 22.613,26.994C21.812,27.792 20.926,28.473 19.955,29.046C18.984,29.62 17.936,30.059 16.817,30.368C15.698,30.677 14.535,30.829 13.336,30.829C12.136,30.829 10.959,30.677 9.845,30.368C8.73,30.059 7.687,29.62 6.716,29.046C5.745,28.473 4.859,27.792 4.067,26.994C3.27,26.202 2.59,25.319 2.017,24.352C1.444,23.384 1.006,22.345 0.697,21.229C0.388,20.114 0.236,18.949 0.236,17.74ZM6.868,17.722C6.868,18.671 7.03,19.558 7.347,20.383C7.665,21.207 8.113,21.924 8.69,22.537C9.267,23.151 9.948,23.63 10.735,23.98C11.523,24.329 12.391,24.504 13.336,24.504C14.28,24.504 15.153,24.329 15.945,23.98C16.737,23.63 17.422,23.151 17.999,22.537C18.576,21.924 19.024,21.207 19.342,20.383C19.659,19.558 19.82,18.671 19.82,17.722C19.82,16.772 19.659,15.898 19.342,15.07C19.024,14.241 18.576,13.515 17.999,12.901C17.422,12.283 16.737,11.799 15.945,11.441C15.153,11.087 14.28,10.908 13.336,10.908C12.391,10.908 11.523,11.087 10.735,11.441C9.948,11.795 9.267,12.283 8.69,12.901C8.113,13.52 7.665,14.241 7.347,15.07C7.03,15.898 6.868,16.781 6.868,17.722Z" style="fill:white;fill-rule:nonzero;"/>
    <path d="M42.833,23.742C42.994,23.63 43.146,23.559 43.285,23.527C43.428,23.5 43.54,23.482 43.621,23.482C43.813,23.482 43.992,23.523 44.153,23.603C44.315,23.684 44.48,23.854 44.65,24.119L46.57,27.017C46.628,27.107 46.682,27.209 46.731,27.326C46.781,27.443 46.807,27.532 46.807,27.599C46.807,27.863 46.722,28.079 46.557,28.244C46.391,28.41 46.212,28.558 46.015,28.683C45.08,29.337 44.051,29.857 42.941,30.251C41.831,30.645 40.645,30.843 39.401,30.843C38.371,30.843 37.382,30.713 36.429,30.448C35.475,30.184 34.585,29.812 33.761,29.324C32.938,28.836 32.186,28.253 31.497,27.572C30.812,26.892 30.23,26.134 29.747,25.301C29.268,24.468 28.892,23.568 28.624,22.6C28.355,21.632 28.221,20.624 28.221,19.572C28.221,18.519 28.355,17.507 28.624,16.535C28.892,15.562 29.268,14.662 29.747,13.833C30.226,13.005 30.808,12.247 31.497,11.567C32.182,10.886 32.938,10.308 33.761,9.824C34.585,9.345 35.471,8.973 36.429,8.708C37.382,8.444 38.376,8.314 39.401,8.314C40.645,8.314 41.799,8.48 42.856,8.812C43.912,9.143 44.905,9.636 45.827,10.285L45.778,10.236C46.029,10.384 46.23,10.559 46.378,10.76C46.525,10.962 46.602,11.208 46.602,11.508C46.602,11.714 46.534,11.925 46.396,12.144L44.87,14.734C44.547,15.294 44.162,15.576 43.706,15.576C43.603,15.576 43.478,15.549 43.33,15.5C43.182,15.446 43.017,15.361 42.833,15.235C42.332,14.904 41.79,14.631 41.213,14.42C40.636,14.21 40.023,14.102 39.369,14.102C38.649,14.102 37.986,14.25 37.382,14.541C36.778,14.832 36.259,15.231 35.829,15.733C35.399,16.234 35.068,16.821 34.827,17.484C34.585,18.147 34.469,18.846 34.469,19.576C34.469,20.306 34.589,21.037 34.827,21.695C35.068,22.354 35.399,22.923 35.829,23.402C36.259,23.881 36.773,24.262 37.382,24.544C37.986,24.826 38.649,24.965 39.369,24.965C40.023,24.965 40.631,24.853 41.204,24.62C41.777,24.392 42.319,24.101 42.833,23.747L42.833,23.742Z" style="fill:white;fill-rule:nonzero;"/>
    <path d="M66.222,27.846C65.215,28.773 64.087,29.494 62.83,30.014C61.572,30.533 60.243,30.793 58.837,30.793C57.271,30.793 55.794,30.507 54.398,29.933C53.001,29.36 51.78,28.571 50.728,27.559C49.676,26.547 48.844,25.355 48.226,23.984C47.609,22.613 47.3,21.117 47.3,19.505C47.3,18.497 47.42,17.525 47.667,16.579C47.913,15.634 48.262,14.752 48.714,13.927C49.166,13.103 49.712,12.346 50.361,11.656C51.005,10.966 51.73,10.37 52.527,9.882C53.328,9.389 54.196,9.009 55.132,8.731C56.067,8.458 57.056,8.319 58.099,8.319C59.048,8.319 59.965,8.444 60.86,8.695C61.751,8.946 62.588,9.3 63.371,9.757C64.154,10.214 64.87,10.765 65.524,11.405C66.177,12.046 66.737,12.745 67.202,13.506C67.672,14.268 68.034,15.079 68.29,15.943C68.545,16.808 68.674,17.695 68.674,18.609C68.674,19.204 68.666,19.688 68.648,20.069C68.63,20.445 68.54,20.745 68.384,20.969C68.222,21.193 67.958,21.346 67.587,21.431C67.215,21.516 66.669,21.561 65.949,21.561L53.61,21.561C53.722,22.291 53.955,22.905 54.304,23.397C54.653,23.89 55.056,24.28 55.512,24.571C55.969,24.862 56.456,25.073 56.971,25.198C57.486,25.324 57.969,25.386 58.43,25.386C58.842,25.386 59.263,25.342 59.697,25.256C60.131,25.171 60.551,25.055 60.954,24.911C61.362,24.768 61.733,24.602 62.069,24.414C62.404,24.226 62.677,24.029 62.883,23.823C63.067,23.675 63.223,23.563 63.353,23.487C63.483,23.411 63.626,23.375 63.774,23.375C63.922,23.375 64.074,23.424 64.226,23.527C64.378,23.63 64.552,23.778 64.749,23.975L66.567,26.036C66.692,26.184 66.772,26.318 66.808,26.439C66.844,26.56 66.857,26.681 66.857,26.806C66.857,27.035 66.795,27.232 66.669,27.398C66.544,27.563 66.396,27.711 66.222,27.837L66.222,27.846ZM57.978,13.556C57.531,13.556 57.101,13.645 56.685,13.82C56.269,13.999 55.875,14.236 55.512,14.532C55.145,14.828 54.818,15.168 54.528,15.544C54.237,15.921 53.999,16.306 53.816,16.696L62.574,16.696C62.333,16.248 62.073,15.836 61.796,15.459C61.514,15.083 61.196,14.752 60.838,14.465C60.48,14.178 60.068,13.954 59.603,13.797C59.142,13.636 58.6,13.556 57.983,13.556L57.978,13.556Z" style="fill:white;fill-rule:nonzero;"/>
    <path d="M93.097,29.181C93.097,29.373 93.061,29.561 92.994,29.736C92.927,29.915 92.811,30.054 92.649,30.157C92.524,30.283 92.376,30.363 92.202,30.399C92.027,30.435 91.88,30.448 91.754,30.448L88.38,30.448C88.138,30.448 87.946,30.417 87.798,30.354C87.65,30.292 87.53,30.202 87.44,30.09C87.351,29.978 87.27,29.835 87.207,29.669C87.145,29.503 87.078,29.324 87.01,29.127L86.787,28.356C86.478,28.665 86.129,28.97 85.73,29.266C85.337,29.561 84.902,29.83 84.428,30.063C83.954,30.296 83.443,30.484 82.902,30.628C82.36,30.771 81.796,30.843 81.215,30.843C80.176,30.843 79.178,30.713 78.225,30.448C77.272,30.184 76.381,29.812 75.553,29.324C74.725,28.836 73.973,28.253 73.298,27.572C72.622,26.892 72.044,26.134 71.557,25.301C71.069,24.468 70.697,23.568 70.433,22.6C70.169,21.632 70.039,20.624 70.039,19.572C70.039,17.981 70.33,16.503 70.912,15.137C71.494,13.771 72.291,12.579 73.293,11.567C74.3,10.554 75.482,9.761 76.842,9.183C78.203,8.605 79.657,8.319 81.215,8.319C81.922,8.319 82.584,8.399 83.193,8.561C83.806,8.722 84.365,8.937 84.871,9.215C85.381,9.488 85.838,9.819 86.25,10.2C86.661,10.586 87.019,10.998 87.328,11.446L87.825,9.882C87.937,9.595 88.035,9.363 88.107,9.188C88.183,9.009 88.259,8.879 88.349,8.794C88.434,8.708 88.541,8.65 88.666,8.623C88.792,8.596 88.971,8.579 89.199,8.579L91.754,8.579C91.88,8.579 92.027,8.596 92.202,8.628C92.372,8.664 92.52,8.744 92.649,8.87C92.811,8.995 92.922,9.139 92.994,9.3C93.061,9.461 93.097,9.645 93.097,9.851L93.097,29.185L93.097,29.181ZM76.216,19.572C76.216,20.324 76.332,21.032 76.569,21.691C76.802,22.349 77.138,22.918 77.572,23.397C78.006,23.877 78.529,24.257 79.138,24.54C79.751,24.822 80.427,24.961 81.17,24.961C81.913,24.961 82.647,24.822 83.305,24.54C83.963,24.257 84.531,23.881 85.019,23.397C85.502,22.918 85.882,22.349 86.16,21.691C86.433,21.032 86.572,20.329 86.572,19.572C86.572,18.815 86.433,18.143 86.16,17.48C85.887,16.817 85.507,16.234 85.019,15.728C84.531,15.226 83.963,14.828 83.305,14.537C82.647,14.245 81.935,14.098 81.17,14.098C80.405,14.098 79.751,14.245 79.138,14.537C78.525,14.828 78.006,15.226 77.572,15.728C77.138,16.23 76.802,16.817 76.569,17.48C76.336,18.143 76.216,18.842 76.216,19.572Z" style="fill:white;fill-rule:nonzero;"/>
    <path d="M97.393,8.973C97.541,8.847 97.698,8.767 97.863,8.731C98.029,8.695 98.186,8.682 98.333,8.682L100.92,8.682C101.126,8.682 101.305,8.717 101.453,8.794C101.6,8.87 101.726,8.968 101.829,9.094C101.931,9.219 102.012,9.363 102.079,9.524C102.142,9.685 102.2,9.846 102.258,10.021L102.616,11.526C102.786,11.172 103.064,10.809 103.449,10.433C103.829,10.057 104.303,9.716 104.872,9.407C105.436,9.098 106.094,8.847 106.832,8.646C107.575,8.444 108.403,8.346 109.316,8.346C110.618,8.346 111.782,8.596 112.802,9.098C113.823,9.6 114.695,10.285 115.407,11.15C116.123,12.019 116.665,13.031 117.036,14.187C117.408,15.347 117.591,16.584 117.591,17.896L117.591,29.131C117.591,29.566 117.497,29.893 117.309,30.117C117.121,30.341 116.821,30.453 116.41,30.453L112.449,30.453C111.956,30.453 111.621,30.372 111.437,30.202C111.254,30.036 111.164,29.714 111.164,29.234L111.164,18.067C111.164,17.574 111.052,17.108 110.829,16.669C110.605,16.23 110.31,15.84 109.947,15.504C109.58,15.168 109.168,14.899 108.703,14.707C108.242,14.514 107.767,14.416 107.289,14.416C106.877,14.416 106.456,14.505 106.031,14.689C105.606,14.873 105.208,15.128 104.849,15.45C104.491,15.777 104.187,16.158 103.941,16.602C103.695,17.041 103.556,17.52 103.52,18.035L103.52,29.185C103.52,29.378 103.484,29.575 103.408,29.767C103.332,29.96 103.22,30.112 103.073,30.215C102.925,30.305 102.782,30.372 102.652,30.404C102.522,30.439 102.37,30.453 102.2,30.453L98.324,30.453C97.832,30.453 97.478,30.332 97.264,30.094C97.044,29.853 96.937,29.535 96.937,29.136L96.937,9.945C96.937,9.73 96.986,9.528 97.085,9.345C97.183,9.161 97.317,9.018 97.487,8.919L97.384,8.968L97.393,8.973Z" style="fill:white;fill-rule:nonzero;"/>
    <path d="M132.199,22.215C132.391,22.376 132.642,22.591 132.946,22.86C133.251,23.129 133.595,23.393 133.985,23.657C134.566,24.047 135.144,24.347 135.717,24.567C136.289,24.786 136.889,24.894 137.516,24.894C138.098,24.894 138.585,24.826 138.979,24.696C139.373,24.567 139.686,24.392 139.915,24.172C140.143,23.957 140.304,23.702 140.402,23.42C140.501,23.133 140.55,22.833 140.55,22.51C140.55,22.156 140.416,21.838 140.147,21.561C139.879,21.283 139.552,21.032 139.163,20.817C138.773,20.602 138.371,20.414 137.945,20.262C137.525,20.109 137.158,19.979 136.849,19.876C135.479,19.397 134.28,18.877 133.251,18.326C132.221,17.771 131.366,17.157 130.682,16.476C129.997,15.795 129.482,15.047 129.138,14.232C128.793,13.417 128.623,12.503 128.623,11.499C128.623,10.438 128.838,9.47 129.268,8.601C129.697,7.732 130.306,6.988 131.102,6.375C131.895,5.756 132.852,5.282 133.971,4.946C135.09,4.61 136.343,4.439 137.726,4.439C138.764,4.439 139.762,4.556 140.716,4.793C141.669,5.026 142.609,5.402 143.535,5.918C143.925,6.146 144.292,6.384 144.641,6.63C144.99,6.876 145.294,7.114 145.558,7.342C145.822,7.571 146.028,7.79 146.185,7.996C146.337,8.202 146.417,8.381 146.417,8.529C146.417,8.677 146.382,8.816 146.306,8.941C146.229,9.067 146.118,9.21 145.97,9.371L143.347,12.167C143.155,12.359 142.958,12.458 142.765,12.458C142.604,12.458 142.461,12.413 142.327,12.319C142.197,12.23 142.049,12.113 141.888,11.974L141.736,11.835C141.508,11.643 141.253,11.441 140.975,11.235C140.693,11.029 140.393,10.845 140.076,10.68C139.753,10.514 139.418,10.375 139.064,10.267C138.711,10.16 138.348,10.106 137.986,10.106C137.623,10.106 137.256,10.137 136.925,10.2C136.594,10.263 136.303,10.362 136.052,10.5C135.802,10.639 135.6,10.818 135.453,11.042C135.305,11.266 135.229,11.535 135.229,11.858C135.229,12.18 135.309,12.454 135.47,12.691C135.632,12.924 135.869,13.143 136.191,13.345C136.509,13.547 136.907,13.735 137.382,13.909C137.856,14.089 138.406,14.277 139.037,14.483C140.25,14.882 141.365,15.303 142.39,15.742C143.41,16.181 144.296,16.7 145.039,17.305C145.782,17.905 146.359,18.622 146.78,19.46C147.196,20.293 147.407,21.305 147.407,22.497C147.407,23.756 147.151,24.898 146.637,25.919C146.122,26.945 145.415,27.814 144.52,28.536C143.625,29.257 142.569,29.812 141.356,30.206C140.143,30.601 138.841,30.798 137.449,30.798C136.133,30.798 134.844,30.56 133.577,30.094C132.311,29.624 131.125,28.992 130.028,28.2C129.572,27.868 129.187,27.541 128.874,27.219C128.56,26.896 128.31,26.641 128.126,26.444L128.077,26.39C128.064,26.367 128.055,26.354 128.041,26.345C128.028,26.34 128.019,26.331 128.005,26.318C127.992,26.296 127.983,26.282 127.97,26.273C127.956,26.269 127.947,26.26 127.934,26.246C127.67,25.96 127.54,25.731 127.54,25.557C127.54,25.359 127.67,25.144 127.934,24.903L130.901,22.071C131.143,21.901 131.335,21.816 131.483,21.816C131.586,21.816 131.693,21.852 131.81,21.919C131.926,21.986 132.06,22.089 132.221,22.228L132.199,22.215Z" style="fill:white;fill-rule:nonzero;"/>
    <path d="M170.464,30.162C170.316,30.287 170.16,30.368 169.994,30.404C169.829,30.439 169.672,30.453 169.524,30.453L166.937,30.453C166.732,30.453 166.552,30.417 166.405,30.341C166.257,30.265 166.132,30.166 166.029,30.041C165.926,29.915 165.841,29.772 165.774,29.611C165.707,29.449 165.648,29.284 165.604,29.113L165.246,27.438C165.076,27.792 164.789,28.164 164.391,28.558C163.993,28.952 163.496,29.315 162.909,29.647C162.319,29.978 161.643,30.251 160.878,30.466C160.112,30.681 159.28,30.793 158.376,30.793C157.073,30.793 155.919,30.542 154.912,30.036C153.905,29.535 153.059,28.845 152.365,27.976C151.676,27.107 151.152,26.09 150.799,24.929C150.445,23.769 150.266,22.533 150.266,21.216L150.266,9.981C150.266,9.546 150.36,9.219 150.548,8.995C150.736,8.771 151.036,8.659 151.448,8.659L155.409,8.659C155.901,8.659 156.237,8.744 156.42,8.91C156.604,9.076 156.693,9.398 156.693,9.882L156.693,21.063C156.693,21.556 156.787,22.022 156.975,22.461C157.163,22.9 157.418,23.29 157.736,23.63C158.054,23.966 158.43,24.235 158.859,24.428C159.289,24.62 159.741,24.719 160.22,24.719C160.631,24.719 161.079,24.652 161.558,24.513C162.037,24.374 162.484,24.159 162.896,23.868C163.308,23.577 163.652,23.2 163.925,22.743C164.198,22.286 164.337,21.735 164.337,21.095L164.337,9.931C164.337,9.739 164.373,9.542 164.449,9.349C164.525,9.156 164.633,9.004 164.785,8.901C164.932,8.812 165.071,8.749 165.205,8.713C165.335,8.677 165.487,8.664 165.657,8.664L169.529,8.664C170.021,8.664 170.375,8.785 170.589,9.022C170.804,9.264 170.916,9.582 170.916,9.981L170.916,29.181C170.916,29.4 170.867,29.597 170.768,29.781C170.67,29.965 170.536,30.108 170.366,30.211L170.469,30.162L170.464,30.162Z" style="fill:white;fill-rule:nonzero;"/>
    <path d="M174.948,8.973C175.096,8.847 175.253,8.767 175.418,8.731C175.584,8.695 175.741,8.682 175.888,8.682L178.475,8.682C178.681,8.682 178.855,8.717 179.008,8.794C179.155,8.87 179.281,8.968 179.384,9.094C179.487,9.219 179.567,9.363 179.634,9.524C179.701,9.685 179.755,9.846 179.813,10.021L180.171,11.526C180.341,11.172 180.587,10.809 180.91,10.433C181.227,10.057 181.635,9.716 182.127,9.407C182.619,9.098 183.206,8.847 183.886,8.646C184.566,8.444 185.363,8.346 186.276,8.346C186.996,8.346 187.65,8.417 188.236,8.561C188.822,8.704 189.359,8.915 189.847,9.192C190.335,9.47 190.774,9.815 191.176,10.218C191.575,10.621 191.955,11.087 192.309,11.611C192.524,11.257 192.85,10.886 193.275,10.5C193.705,10.111 194.215,9.761 194.81,9.439C195.406,9.121 196.068,8.856 196.798,8.65C197.527,8.444 198.306,8.341 199.129,8.341C200.432,8.341 201.568,8.592 202.54,9.094C203.511,9.595 204.321,10.281 204.965,11.145C205.61,12.015 206.093,13.027 206.415,14.183C206.733,15.343 206.894,16.579 206.894,17.892L206.894,29.127C206.894,29.561 206.8,29.888 206.612,30.112C206.424,30.336 206.124,30.448 205.713,30.448L201.752,30.448C201.26,30.448 200.924,30.368 200.74,30.198C200.557,30.032 200.467,29.709 200.467,29.23L200.467,17.892C200.467,17.399 200.391,16.942 200.235,16.521C200.083,16.1 199.868,15.728 199.59,15.415C199.317,15.101 198.982,14.855 198.588,14.675C198.194,14.496 197.755,14.411 197.276,14.411C196.842,14.411 196.431,14.496 196.041,14.666C195.652,14.837 195.312,15.074 195.012,15.379C194.716,15.683 194.479,16.046 194.3,16.476C194.121,16.906 194.036,17.377 194.036,17.892L194.036,29.127C194.036,29.561 193.942,29.888 193.754,30.112C193.566,30.336 193.266,30.448 192.855,30.448L188.894,30.448C188.402,30.448 188.066,30.368 187.882,30.198C187.699,30.032 187.609,29.709 187.609,29.23L187.609,17.892C187.609,17.399 187.538,16.942 187.395,16.521C187.251,16.1 187.046,15.728 186.777,15.415C186.509,15.101 186.182,14.855 185.801,14.675C185.416,14.496 184.987,14.411 184.508,14.411C184.096,14.411 183.693,14.496 183.3,14.662C182.906,14.828 182.552,15.061 182.239,15.365C181.926,15.67 181.662,16.033 181.451,16.454C181.241,16.875 181.116,17.345 181.084,17.86L181.084,29.185C181.084,29.378 181.048,29.575 180.972,29.767C180.896,29.96 180.784,30.112 180.637,30.215C180.489,30.305 180.346,30.372 180.216,30.404C180.086,30.439 179.934,30.453 179.764,30.453L175.888,30.453C175.396,30.453 175.042,30.332 174.828,30.094C174.608,29.853 174.501,29.535 174.501,29.136L174.501,9.945C174.501,9.73 174.55,9.528 174.649,9.345C174.747,9.161 174.881,9.018 175.051,8.919L174.948,8.968L174.948,8.973Z" style="fill:white;fill-rule:nonzero;"/>
    <path d="M210.434,8.973C210.582,8.847 210.739,8.767 210.904,8.731C211.07,8.695 211.226,8.682 211.374,8.682L213.961,8.682C214.167,8.682 214.341,8.717 214.493,8.794C214.641,8.87 214.766,8.968 214.869,9.094C214.972,9.219 215.053,9.363 215.12,9.524C215.187,9.685 215.241,9.846 215.299,10.021L215.657,11.526C215.827,11.172 216.073,10.809 216.396,10.433C216.713,10.057 217.121,9.716 217.613,9.407C218.105,9.098 218.691,8.847 219.372,8.646C220.052,8.444 220.849,8.346 221.762,8.346C222.482,8.346 223.136,8.417 223.722,8.561C224.308,8.704 224.845,8.915 225.333,9.192C225.821,9.47 226.259,9.815 226.662,10.218C227.061,10.621 227.441,11.087 227.795,11.611C228.009,11.257 228.336,10.886 228.761,10.5C229.191,10.111 229.701,9.761 230.296,9.439C230.892,9.121 231.554,8.856 232.283,8.65C233.013,8.444 233.792,8.341 234.615,8.341C235.917,8.341 237.054,8.592 238.025,9.094C238.997,9.595 239.807,10.281 240.451,11.145C241.096,12.015 241.579,13.027 241.901,14.183C242.219,15.343 242.38,16.579 242.38,17.892L242.38,29.127C242.38,29.561 242.286,29.888 242.098,30.112C241.91,30.336 241.61,30.448 241.198,30.448L237.238,30.448C236.745,30.448 236.41,30.368 236.226,30.198C236.043,30.032 235.953,29.709 235.953,29.23L235.953,17.892C235.953,17.399 235.877,16.942 235.721,16.521C235.568,16.1 235.354,15.728 235.076,15.415C234.803,15.101 234.467,14.855 234.074,14.675C233.68,14.496 233.241,14.411 232.762,14.411C232.328,14.411 231.916,14.496 231.527,14.666C231.138,14.837 230.798,15.074 230.498,15.379C230.202,15.683 229.965,16.046 229.786,16.476C229.607,16.906 229.522,17.377 229.522,17.892L229.522,29.127C229.522,29.561 229.428,29.888 229.24,30.112C229.052,30.336 228.752,30.448 228.341,30.448L224.38,30.448C223.887,30.448 223.552,30.368 223.368,30.198C223.185,30.032 223.095,29.709 223.095,29.23L223.095,17.892C223.095,17.399 223.024,16.942 222.88,16.521C222.737,16.1 222.531,15.728 222.263,15.415C221.994,15.101 221.668,14.855 221.287,14.675C220.902,14.496 220.473,14.411 219.994,14.411C219.582,14.411 219.179,14.496 218.785,14.662C218.392,14.828 218.038,15.061 217.725,15.365C217.411,15.67 217.147,16.033 216.937,16.454C216.727,16.875 216.601,17.345 216.57,17.86L216.57,29.185C216.57,29.378 216.534,29.575 216.458,29.767C216.382,29.96 216.27,30.112 216.123,30.215C215.975,30.305 215.832,30.372 215.702,30.404C215.572,30.439 215.42,30.453 215.25,30.453L211.374,30.453C210.882,30.453 210.528,30.332 210.313,30.094C210.094,29.853 209.987,29.535 209.987,29.136L209.987,9.945C209.987,9.73 210.036,9.528 210.134,9.345C210.233,9.161 210.367,9.018 210.537,8.919L210.434,8.968L210.434,8.973Z" style="fill:white;fill-rule:nonzero;"/>
    <path d="M246.493,1.321C246.493,0.842 246.596,0.502 246.802,0.3C247.008,0.099 247.325,0 247.759,0L251.734,0C252.132,0 252.454,0.099 252.7,0.3C252.947,0.502 253.067,0.842 253.067,1.321L253.067,4.668C253.067,4.807 253.036,4.955 252.973,5.116C252.911,5.277 252.821,5.429 252.709,5.577C252.593,5.725 252.454,5.85 252.289,5.945C252.123,6.043 251.935,6.092 251.734,6.092L247.759,6.092C246.914,6.092 246.493,5.618 246.493,4.668L246.493,1.321ZM246.493,10.003C246.493,9.636 246.596,9.322 246.802,9.058C247.008,8.794 247.325,8.664 247.759,8.664L251.684,8.664C251.823,8.664 251.971,8.695 252.132,8.758C252.293,8.82 252.441,8.915 252.58,9.031C252.718,9.152 252.835,9.291 252.933,9.452C253.032,9.613 253.081,9.797 253.081,10.003L253.081,29.131C253.081,29.566 252.96,29.893 252.723,30.117C252.481,30.341 252.141,30.453 251.693,30.453L247.768,30.453C246.923,30.453 246.502,30.014 246.502,29.131L246.502,10.003L246.493,10.003Z" style="fill:white;fill-rule:nonzero;"/>
    <path d="M258.51,5.268C258.51,4.914 258.626,4.65 258.863,4.471C259.096,4.292 259.431,4.126 259.866,3.965L263.755,2.607C263.813,2.594 263.867,2.589 263.916,2.589L264.064,2.589C264.484,2.589 264.771,2.715 264.914,2.957C265.057,3.203 265.129,3.526 265.129,3.924L265.111,8.641L267.46,8.641C267.827,8.641 268.123,8.749 268.351,8.968C268.579,9.188 268.696,9.51 268.696,9.945L268.696,13.255C268.696,13.735 268.579,14.089 268.351,14.313C268.123,14.537 267.827,14.649 267.46,14.649L265.111,14.649L265.129,29.127C265.129,29.561 265.003,29.888 264.753,30.112C264.502,30.336 264.153,30.448 263.706,30.448L259.834,30.448C258.953,30.448 258.514,30.009 258.514,29.127L258.496,14.649L256.733,14.649C255.851,14.649 255.413,14.187 255.413,13.26L255.413,9.949C255.413,9.08 255.851,8.646 256.733,8.646L258.496,8.646L258.514,5.268L258.51,5.268Z" style="fill:white;fill-rule:nonzero;"/>
    <path d="M13.877,37.284C13.931,37.15 14.02,37.083 14.137,37.083L15.341,37.083C15.493,37.083 15.6,37.114 15.649,37.172C15.703,37.231 15.73,37.302 15.73,37.392L15.73,37.513L13.609,42.624L15.864,48.125L20.187,37.428C20.272,37.199 20.438,37.087 20.68,37.087L21.633,37.087C21.785,37.087 21.892,37.119 21.951,37.177C22.009,37.235 22.04,37.307 22.04,37.396L22.04,37.481L16.647,50.459C16.647,50.459 16.638,50.49 16.625,50.531C16.612,50.571 16.585,50.616 16.544,50.661C16.509,50.705 16.459,50.75 16.397,50.791C16.334,50.831 16.262,50.849 16.173,50.849L15.542,50.849C15.39,50.849 15.273,50.808 15.193,50.728C15.117,50.647 15.076,50.576 15.076,50.504L12.691,44.797L10.332,50.455C10.301,50.558 10.247,50.652 10.171,50.728C10.095,50.804 10.006,50.844 9.907,50.844L9.249,50.844C9.12,50.844 9.017,50.804 8.945,50.719C8.873,50.634 8.82,50.562 8.788,50.49L3.413,37.513C3.413,37.513 3.4,37.481 3.391,37.459C3.382,37.437 3.378,37.405 3.378,37.374C3.378,37.181 3.498,37.087 3.74,37.087L4.778,37.087C4.872,37.087 4.957,37.119 5.038,37.181C5.119,37.244 5.181,37.343 5.23,37.477L9.563,48.13L13.886,37.293L13.877,37.284Z" style="fill:rgb(16,116,176);fill-rule:nonzero;"/>
    <path d="M33.627,37.49C33.627,37.378 33.663,37.284 33.739,37.204C33.815,37.123 33.914,37.083 34.034,37.083L34.97,37.083C35.082,37.083 35.185,37.119 35.274,37.195C35.364,37.271 35.413,37.369 35.413,37.49L35.413,50.428C35.413,50.701 35.265,50.835 34.97,50.835L34.034,50.835C33.761,50.835 33.627,50.701 33.627,50.428L33.627,44.483L25.827,44.483L25.827,50.428C25.827,50.701 25.679,50.835 25.383,50.835L24.448,50.835C24.175,50.835 24.041,50.701 24.041,50.428L24.041,37.49C24.041,37.378 24.077,37.284 24.153,37.204C24.229,37.123 24.327,37.083 24.448,37.083L25.401,37.083C25.513,37.083 25.612,37.123 25.697,37.204C25.782,37.284 25.827,37.378 25.827,37.49L25.827,42.687L33.627,42.687L33.627,37.49Z" style="fill:rgb(16,116,176);fill-rule:nonzero;"/>
    <path d="M47.635,37.083C47.917,37.083 48.061,37.231 48.061,37.526L48.061,38.445C48.061,38.561 48.025,38.664 47.953,38.749C47.882,38.834 47.77,38.879 47.617,38.879L40.157,38.879L40.157,42.687L46.024,42.687C46.136,42.687 46.23,42.718 46.311,42.785C46.391,42.848 46.431,42.96 46.431,43.112L46.431,44.058C46.431,44.17 46.396,44.268 46.329,44.353C46.261,44.438 46.158,44.483 46.024,44.483L40.157,44.483L40.157,49.039L47.653,49.039C47.935,49.039 48.078,49.182 48.078,49.474L48.078,50.428C48.078,50.701 47.944,50.835 47.671,50.835L38.77,50.835C38.497,50.835 38.362,50.705 38.362,50.446L38.362,37.504C38.362,37.222 38.497,37.078 38.77,37.078L47.635,37.078L47.635,37.083Z" style="fill:rgb(16,116,176);fill-rule:nonzero;"/>
    <path d="M50.254,37.526C50.254,37.231 50.388,37.083 50.661,37.083L56,37.083C56.618,37.083 57.19,37.199 57.723,37.432C58.256,37.665 58.717,37.979 59.11,38.377C59.504,38.776 59.813,39.242 60.041,39.775C60.265,40.308 60.377,40.877 60.377,41.482C60.377,41.912 60.319,42.328 60.198,42.727C60.077,43.126 59.911,43.493 59.692,43.834C59.477,44.174 59.218,44.479 58.914,44.747C58.609,45.016 58.274,45.24 57.907,45.419L60.35,50.432L60.35,50.553C60.35,50.746 60.234,50.84 60.01,50.84L58.891,50.84C58.699,50.84 58.551,50.728 58.448,50.499L56.228,45.832C56.179,45.836 56.125,45.841 56.067,45.841L55.816,45.841C55.709,45.841 55.566,45.845 55.387,45.845L52.057,45.845L52.057,50.428C52.057,50.701 51.914,50.835 51.632,50.835L50.67,50.835C50.397,50.835 50.262,50.701 50.262,50.428L50.262,37.526L50.254,37.526ZM58.6,41.464C58.6,41.123 58.533,40.796 58.403,40.483C58.269,40.169 58.09,39.892 57.857,39.65C57.625,39.408 57.352,39.215 57.034,39.072C56.716,38.928 56.371,38.852 56,38.852L52.048,38.852L52.048,44.076L56.036,44.076C56.398,44.076 56.738,44.004 57.052,43.86C57.365,43.717 57.638,43.529 57.866,43.287C58.094,43.045 58.274,42.767 58.403,42.454C58.533,42.14 58.596,41.809 58.596,41.464L58.6,41.464Z" style="fill:rgb(16,116,176);fill-rule:nonzero;"/>
    <path d="M72.25,37.083C72.532,37.083 72.676,37.231 72.676,37.526L72.676,38.445C72.676,38.561 72.64,38.664 72.568,38.749C72.496,38.834 72.385,38.879 72.232,38.879L64.772,38.879L64.772,42.687L70.639,42.687C70.751,42.687 70.845,42.718 70.926,42.785C71.006,42.848 71.046,42.96 71.046,43.112L71.046,44.058C71.046,44.17 71.011,44.268 70.944,44.353C70.876,44.438 70.773,44.483 70.639,44.483L64.772,44.483L64.772,49.039L72.268,49.039C72.55,49.039 72.693,49.182 72.693,49.474L72.693,50.428C72.693,50.701 72.559,50.835 72.286,50.835L63.384,50.835C63.111,50.835 62.977,50.705 62.977,50.446L62.977,37.504C62.977,37.222 63.111,37.078 63.384,37.078L72.25,37.078L72.25,37.083Z" style="fill:rgb(16,116,176);fill-rule:nonzero;"/>
    <path d="M80.66,37.49C80.66,37.378 80.696,37.284 80.767,37.204C80.839,37.123 80.937,37.083 81.067,37.083L82.029,37.083C82.141,37.083 82.24,37.119 82.325,37.195C82.41,37.271 82.454,37.369 82.454,37.49L82.454,50.428C82.454,50.701 82.311,50.835 82.029,50.835L81.067,50.835C80.794,50.835 80.66,50.701 80.66,50.428L80.66,37.49Z" style="fill:rgb(16,116,176);fill-rule:nonzero;"/>
    <path d="M95.644,50.835C95.509,50.835 95.393,50.768 95.29,50.634L87.212,39.797L87.212,50.432C87.212,50.705 87.069,50.84 86.787,50.84L85.851,50.84C85.578,50.84 85.444,50.705 85.444,50.432L85.444,37.513C85.444,37.387 85.48,37.289 85.556,37.208C85.632,37.128 85.73,37.087 85.851,37.087L87.091,37.087C87.252,37.087 87.382,37.154 87.48,37.289L95.357,47.767L95.357,37.428C95.393,37.199 95.532,37.087 95.764,37.087L96.7,37.087C96.812,37.087 96.915,37.123 97.009,37.199C97.103,37.275 97.152,37.374 97.152,37.495L97.152,50.432C97.152,50.705 97,50.84 96.7,50.84L95.644,50.84L95.644,50.835Z" style="fill:rgb(16,116,176);fill-rule:nonzero;"/>
    <path d="M100.101,37.508C100.101,37.226 100.235,37.083 100.508,37.083L109.244,37.083C109.526,37.083 109.67,37.231 109.67,37.526L109.67,38.445C109.67,38.561 109.629,38.664 109.553,38.749C109.477,38.834 109.374,38.879 109.244,38.879L101.896,38.879L101.896,43.426L104.791,43.426C105.74,43.426 106.711,43.43 107.696,43.43C107.808,43.43 107.902,43.466 107.982,43.533C108.063,43.601 108.103,43.713 108.103,43.865L108.103,44.801C108.103,44.913 108.067,45.012 107.996,45.097C107.924,45.182 107.826,45.227 107.696,45.227L101.896,45.227L101.896,50.441C101.896,50.701 101.752,50.831 101.462,50.831L100.508,50.831C100.235,50.831 100.101,50.701 100.101,50.441L100.101,37.499L100.101,37.508Z" style="fill:rgb(16,116,176);fill-rule:nonzero;"/>
    <path d="M119.99,49.039C120.102,49.039 120.196,49.079 120.276,49.155C120.357,49.232 120.397,49.339 120.397,49.474L120.397,50.428C120.397,50.54 120.361,50.634 120.285,50.714C120.209,50.795 120.111,50.835 119.99,50.835L112.122,50.835C111.849,50.835 111.715,50.701 111.715,50.428L111.715,37.49C111.715,37.378 111.751,37.284 111.827,37.204C111.898,37.123 112.006,37.083 112.14,37.083L113.093,37.083C113.21,37.083 113.308,37.119 113.384,37.186C113.46,37.253 113.5,37.356 113.5,37.49L113.5,49.039L119.99,49.039Z" style="fill:rgb(16,116,176);fill-rule:nonzero;"/>
    <path d="M123.951,45.151C123.951,45.737 124.036,46.284 124.206,46.79C124.376,47.296 124.626,47.735 124.953,48.112C125.284,48.484 125.687,48.779 126.162,48.99C126.636,49.205 127.177,49.308 127.791,49.308C128.444,49.308 129.017,49.2 129.505,48.985C129.993,48.77 130.395,48.475 130.713,48.103C131.031,47.731 131.268,47.287 131.425,46.781C131.581,46.275 131.662,45.733 131.662,45.151L131.662,37.49C131.662,37.378 131.702,37.284 131.787,37.204C131.872,37.123 131.975,37.083 132.096,37.083L132.987,37.083C133.103,37.083 133.21,37.119 133.309,37.195C133.407,37.271 133.457,37.369 133.457,37.49L133.457,45.401C133.457,46.235 133.309,47.001 133.013,47.695C132.718,48.389 132.311,48.985 131.796,49.482C131.281,49.98 130.677,50.365 129.993,50.643C129.303,50.92 128.574,51.059 127.795,51.059C127.016,51.059 126.287,50.911 125.602,50.616C124.917,50.32 124.318,49.913 123.803,49.397C123.288,48.882 122.881,48.282 122.586,47.597C122.29,46.911 122.143,46.181 122.143,45.401L122.143,37.49C122.143,37.396 122.178,37.307 122.25,37.217C122.322,37.128 122.416,37.083 122.532,37.083L123.521,37.083C123.615,37.083 123.709,37.123 123.807,37.204C123.906,37.284 123.955,37.378 123.955,37.49L123.955,45.151L123.951,45.151Z" style="fill:rgb(16,116,176);fill-rule:nonzero;"/>
    <path d="M145.518,37.083C145.8,37.083 145.943,37.231 145.943,37.526L145.943,38.445C145.943,38.561 145.907,38.664 145.836,38.749C145.764,38.834 145.652,38.879 145.5,38.879L138.039,38.879L138.039,42.687L143.907,42.687C144.019,42.687 144.113,42.718 144.193,42.785C144.274,42.848 144.314,42.96 144.314,43.112L144.314,44.058C144.314,44.17 144.278,44.268 144.211,44.353C144.144,44.438 144.041,44.483 143.907,44.483L138.039,44.483L138.039,49.039L145.536,49.039C145.818,49.039 145.961,49.182 145.961,49.474L145.961,50.428C145.961,50.701 145.827,50.835 145.554,50.835L136.652,50.835C136.379,50.835 136.245,50.705 136.245,50.446L136.245,37.504C136.245,37.222 136.379,37.078 136.652,37.078L145.518,37.078L145.518,37.083Z" style="fill:rgb(16,116,176);fill-rule:nonzero;"/>
    <path d="M158.327,50.835C158.192,50.835 158.076,50.768 157.973,50.634L149.895,39.797L149.895,50.432C149.895,50.705 149.752,50.84 149.47,50.84L148.534,50.84C148.261,50.84 148.127,50.705 148.127,50.432L148.127,37.513C148.127,37.387 148.163,37.289 148.239,37.208C148.315,37.128 148.413,37.087 148.534,37.087L149.774,37.087C149.935,37.087 150.065,37.154 150.163,37.289L158.04,47.767L158.04,37.428C158.076,37.199 158.215,37.087 158.447,37.087L159.383,37.087C159.495,37.087 159.598,37.123 159.692,37.199C159.786,37.275 159.835,37.374 159.835,37.495L159.835,50.432C159.835,50.705 159.683,50.84 159.383,50.84L158.327,50.84L158.327,50.835Z" style="fill:rgb(16,116,176);fill-rule:nonzero;"/>
    <path d="M173.467,38.239C173.534,38.288 173.592,38.346 173.633,38.409C173.673,38.471 173.695,38.539 173.695,38.606C173.695,38.691 173.673,38.767 173.624,38.83L173.131,39.645C173.028,39.793 172.917,39.869 172.809,39.869C172.764,39.869 172.72,39.86 172.666,39.838C172.612,39.815 172.554,39.78 172.487,39.73C172.044,39.417 171.574,39.175 171.086,39.009C170.594,38.843 170.079,38.745 169.538,38.713C168.741,38.713 168.007,38.857 167.336,39.143C166.664,39.43 166.083,39.815 165.59,40.304C165.098,40.787 164.718,41.352 164.44,41.988C164.163,42.629 164.024,43.301 164.024,44.013C164.024,44.765 164.167,45.464 164.449,46.1C164.731,46.741 165.111,47.292 165.59,47.753C166.069,48.215 166.624,48.578 167.255,48.837C167.886,49.097 168.553,49.227 169.251,49.227C169.502,49.227 169.757,49.209 170.012,49.173C170.267,49.138 170.522,49.075 170.786,48.985C171.05,48.896 171.323,48.784 171.605,48.645C171.887,48.506 172.192,48.336 172.514,48.13C172.63,48.062 172.729,48.027 172.8,48.027C172.912,48.027 173.015,48.103 173.105,48.26L173.633,49.129C173.677,49.209 173.695,49.281 173.695,49.353C173.695,49.5 173.619,49.617 173.472,49.706C172.89,50.128 172.254,50.455 171.556,50.692C170.858,50.929 170.106,51.05 169.296,51.05C168.643,51.05 168.016,50.965 167.412,50.799C166.812,50.634 166.248,50.396 165.729,50.087C165.21,49.778 164.731,49.411 164.306,48.981C163.881,48.551 163.509,48.076 163.205,47.556C162.901,47.036 162.663,46.472 162.498,45.872C162.332,45.272 162.247,44.64 162.247,43.986C162.247,43.332 162.332,42.714 162.498,42.109C162.663,41.509 162.901,40.944 163.209,40.42C163.518,39.896 163.885,39.417 164.315,38.987C164.744,38.557 165.219,38.185 165.742,37.88C166.266,37.576 166.83,37.338 167.43,37.168C168.029,36.998 168.66,36.913 169.314,36.913C170.084,36.913 170.818,37.025 171.507,37.253C172.196,37.481 172.849,37.813 173.467,38.252L173.467,38.239Z" style="fill:rgb(16,116,176);fill-rule:nonzero;"/>
    <path d="M185.229,37.083C185.51,37.083 185.654,37.231 185.654,37.526L185.654,38.445C185.654,38.561 185.618,38.664 185.546,38.749C185.475,38.834 185.363,38.879 185.211,38.879L177.75,38.879L177.75,42.687L183.617,42.687C183.729,42.687 183.823,42.718 183.904,42.785C183.984,42.848 184.025,42.96 184.025,43.112L184.025,44.058C184.025,44.17 183.989,44.268 183.922,44.353C183.855,44.438 183.752,44.483 183.617,44.483L177.75,44.483L177.75,49.039L185.246,49.039C185.528,49.039 185.672,49.182 185.672,49.474L185.672,50.428C185.672,50.701 185.537,50.835 185.264,50.835L176.363,50.835C176.09,50.835 175.955,50.705 175.955,50.446L175.955,37.504C175.955,37.222 176.09,37.078 176.363,37.078L185.229,37.078L185.229,37.083Z" style="fill:rgb(16,116,176);fill-rule:nonzero;"/>
    <path d="M187.847,37.526C187.847,37.231 187.981,37.083 188.254,37.083L193.593,37.083C194.211,37.083 194.784,37.199 195.316,37.432C195.849,37.665 196.31,37.979 196.704,38.377C197.097,38.776 197.406,39.242 197.634,39.775C197.858,40.308 197.97,40.877 197.97,41.482C197.97,41.912 197.912,42.328 197.791,42.727C197.67,43.126 197.505,43.493 197.285,43.834C197.071,44.174 196.811,44.479 196.507,44.747C196.202,45.016 195.867,45.24 195.5,45.419L197.943,50.432L197.943,50.553C197.943,50.746 197.827,50.84 197.603,50.84L196.484,50.84C196.292,50.84 196.144,50.728 196.041,50.499L193.821,45.832C193.772,45.836 193.718,45.841 193.66,45.841L193.41,45.841C193.302,45.841 193.159,45.845 192.98,45.845L189.65,45.845L189.65,50.428C189.65,50.701 189.507,50.835 189.225,50.835L188.263,50.835C187.99,50.835 187.856,50.701 187.856,50.428L187.856,37.526L187.847,37.526ZM196.193,41.464C196.193,41.123 196.126,40.796 195.996,40.483C195.862,40.169 195.683,39.892 195.45,39.65C195.218,39.408 194.945,39.215 194.627,39.072C194.309,38.928 193.965,38.852 193.593,38.852L189.641,38.852L189.641,44.076L193.629,44.076C193.991,44.076 194.332,44.004 194.645,43.86C194.958,43.717 195.231,43.529 195.459,43.287C195.688,43.045 195.867,42.767 195.996,42.454C196.126,42.14 196.189,41.809 196.189,41.464L196.193,41.464Z" style="fill:rgb(16,116,176);fill-rule:nonzero;"/>
    <path d="M208.452,40.084C208.367,40.03 208.223,39.923 208.026,39.762C207.83,39.6 207.588,39.439 207.301,39.269C207.015,39.103 206.693,38.951 206.335,38.821C205.977,38.686 205.592,38.624 205.18,38.624C204.692,38.624 204.272,38.682 203.923,38.798C203.569,38.915 203.283,39.072 203.054,39.264C202.826,39.457 202.656,39.676 202.549,39.923C202.441,40.165 202.387,40.411 202.387,40.658C202.387,41.002 202.504,41.294 202.732,41.527C202.96,41.76 203.265,41.966 203.641,42.136C204.016,42.306 204.446,42.463 204.921,42.602C205.395,42.741 205.887,42.888 206.384,43.041C206.881,43.193 207.369,43.368 207.847,43.56C208.326,43.753 208.752,43.99 209.127,44.273C209.503,44.555 209.808,44.895 210.036,45.289C210.264,45.684 210.381,46.163 210.381,46.727C210.381,47.377 210.246,47.964 209.978,48.492C209.709,49.021 209.342,49.474 208.877,49.845C208.411,50.217 207.865,50.508 207.234,50.71C206.603,50.911 205.932,51.015 205.207,51.015C204.724,51.015 204.249,50.961 203.779,50.853C203.309,50.746 202.853,50.589 202.419,50.383C201.985,50.177 201.577,49.926 201.201,49.63C200.825,49.335 200.49,48.994 200.194,48.613C200.114,48.515 200.074,48.416 200.078,48.318C200.078,48.219 200.136,48.125 200.239,48.04L200.969,47.431C201.072,47.346 201.175,47.305 201.273,47.314C201.371,47.323 201.461,47.377 201.542,47.475L201.662,47.597C201.922,47.888 202.217,48.139 202.544,48.353C202.875,48.569 203.202,48.743 203.533,48.882C203.864,49.021 204.178,49.124 204.482,49.191C204.786,49.258 205.041,49.294 205.252,49.294C205.628,49.294 206.013,49.245 206.411,49.147C206.805,49.048 207.167,48.896 207.494,48.694C207.821,48.492 208.089,48.233 208.299,47.919C208.51,47.605 208.613,47.243 208.613,46.822C208.613,46.468 208.51,46.172 208.304,45.926C208.098,45.684 207.816,45.469 207.467,45.285C207.113,45.101 206.702,44.94 206.232,44.792C205.762,44.644 205.256,44.492 204.719,44.335C203.981,44.12 203.345,43.892 202.813,43.654C202.28,43.417 201.846,43.153 201.501,42.866C201.157,42.579 200.906,42.257 200.745,41.903C200.584,41.549 200.503,41.146 200.503,40.702C200.503,40.142 200.615,39.627 200.839,39.161C201.063,38.695 201.385,38.292 201.797,37.952C202.208,37.611 202.71,37.347 203.291,37.159C203.873,36.971 204.527,36.877 205.247,36.877C205.637,36.877 206.039,36.926 206.46,37.025C206.881,37.123 207.288,37.262 207.686,37.437C208.085,37.611 208.456,37.822 208.805,38.068C209.154,38.315 209.454,38.583 209.709,38.879C209.794,38.973 209.839,39.067 209.844,39.17C209.844,39.273 209.799,39.367 209.7,39.461L209.042,40.093C208.944,40.187 208.845,40.227 208.743,40.223C208.64,40.219 208.546,40.169 208.461,40.084L208.452,40.084Z" style="fill:rgb(16,116,176);fill-rule:nonzero;"/>
    <path d="M225.333,50.244C225.199,50.244 225.078,50.132 224.971,49.904L220.907,40.066L219.824,50.432C219.824,50.705 219.69,50.84 219.417,50.84L218.454,50.84C218.172,50.84 218.029,50.705 218.029,50.432L219.493,37.495C219.493,37.369 219.537,37.271 219.631,37.199C219.725,37.123 219.824,37.087 219.936,37.087L221.359,37.087C221.556,37.087 221.69,37.204 221.766,37.428L225.781,47.256L229.835,37.428C229.867,37.316 229.916,37.231 229.983,37.172C230.05,37.114 230.126,37.083 230.216,37.083L231.688,37.083C231.818,37.083 231.916,37.123 231.988,37.204C232.06,37.284 232.095,37.378 232.095,37.49L233.559,50.428C233.559,50.701 233.425,50.835 233.152,50.835L232.189,50.835C231.907,50.835 231.764,50.701 231.764,50.428L230.681,40.062L226.6,49.899C226.497,50.128 226.371,50.24 226.228,50.24L225.329,50.24L225.333,50.244Z" style="fill:rgb(16,116,176);fill-rule:nonzero;"/>
    <path d="M245.106,37.083C245.388,37.083 245.531,37.231 245.531,37.526L245.531,38.445C245.531,38.561 245.495,38.664 245.423,38.749C245.352,38.834 245.24,38.879 245.088,38.879L237.627,38.879L237.627,42.687L243.494,42.687C243.606,42.687 243.7,42.718 243.781,42.785C243.861,42.848 243.902,42.96 243.902,43.112L243.902,44.058C243.902,44.17 243.866,44.268 243.799,44.353C243.732,44.438 243.629,44.483 243.494,44.483L237.627,44.483L237.627,49.039L245.123,49.039C245.405,49.039 245.549,49.182 245.549,49.474L245.549,50.428C245.549,50.701 245.414,50.835 245.141,50.835L236.24,50.835C235.967,50.835 235.832,50.705 235.832,50.446L235.832,37.504C235.832,37.222 235.967,37.078 236.24,37.078L245.106,37.078L245.106,37.083Z" style="fill:rgb(16,116,176);fill-rule:nonzero;"/>
    <path d="M256.997,37.083C257.279,37.083 257.422,37.231 257.422,37.526L257.422,38.445C257.422,38.561 257.386,38.664 257.315,38.749C257.243,38.834 257.131,38.879 256.979,38.879L249.518,38.879L249.518,42.687L255.386,42.687C255.498,42.687 255.592,42.718 255.672,42.785C255.753,42.848 255.793,42.96 255.793,43.112L255.793,44.058C255.793,44.17 255.757,44.268 255.69,44.353C255.623,44.438 255.52,44.483 255.386,44.483L249.518,44.483L249.518,49.039L257.015,49.039C257.297,49.039 257.44,49.182 257.44,49.474L257.44,50.428C257.44,50.701 257.306,50.835 257.033,50.835L248.131,50.835C247.858,50.835 247.724,50.705 247.724,50.446L247.724,37.504C247.724,37.222 247.858,37.078 248.131,37.078L256.997,37.078L256.997,37.083Z" style="fill:rgb(16,116,176);fill-rule:nonzero;"/>
    <path d="M268.548,37.083C268.66,37.083 268.758,37.119 268.848,37.186C268.937,37.253 268.987,37.356 269,37.49L269,38.427C269,38.552 268.964,38.655 268.888,38.745C268.812,38.834 268.7,38.879 268.548,38.879L264.699,38.879L264.699,50.41C264.699,50.522 264.663,50.62 264.587,50.705C264.511,50.791 264.408,50.835 264.274,50.835L263.339,50.835C263.227,50.835 263.128,50.795 263.043,50.714C262.958,50.634 262.913,50.531 262.913,50.41L262.913,38.879L259.047,38.879C258.921,38.879 258.823,38.843 258.742,38.767C258.662,38.695 258.621,38.579 258.621,38.427L258.621,37.49C258.621,37.365 258.662,37.266 258.742,37.195C258.823,37.119 258.926,37.083 259.047,37.083L268.552,37.083L268.548,37.083Z" style="fill:rgb(16,116,176);fill-rule:nonzero;"/>
</svg>
